<mxfile host="app.diagrams.net" agent="Mozilla/5.0 (Windows NT 10.0; Win64; x64) AppleWebKit/537.36 (KHTML, like Gecko) Chrome/136.0.0.0 Safari/537.36 Edg/136.0.0.0" version="27.0.6">
  <diagram name="第 1 页" id="40HLDpTf6hF90Px6eQFz">
    <mxGraphModel dx="1378" dy="838" grid="1" gridSize="10" guides="1" tooltips="1" connect="1" arrows="1" fold="1" page="1" pageScale="1" pageWidth="827" pageHeight="1169" math="0" shadow="0">
      <root>
        <mxCell id="0" />
        <mxCell id="1" parent="0" />
        <mxCell id="pTljadonaxYR-jarqHca-2" value="Key 1 (Copy)" style="rounded=1;whiteSpace=wrap;html=1;rotation=0;dashed=1;fillColor=#f8cecc;strokeColor=#b85450;" parent="1" vertex="1">
          <mxGeometry x="240" y="625" width="100" height="30" as="geometry" />
        </mxCell>
        <mxCell id="pTljadonaxYR-jarqHca-32" value="Value 1 (Copy)" style="rounded=1;whiteSpace=wrap;html=1;rotation=0;dashed=1;fillColor=#d5e8d4;strokeColor=#82b366;" parent="1" vertex="1">
          <mxGeometry x="370" y="625" width="100" height="30" as="geometry" />
        </mxCell>
        <mxCell id="pTljadonaxYR-jarqHca-1" value="Value 1" style="rounded=1;whiteSpace=wrap;html=1;rotation=0;fillColor=#d5e8d4;strokeColor=#82b366;" parent="1" vertex="1">
          <mxGeometry x="370" y="380" width="100" height="30" as="geometry" />
        </mxCell>
        <mxCell id="pTljadonaxYR-jarqHca-5" value="Key 1" style="rounded=1;whiteSpace=wrap;html=1;rotation=0;fillColor=#f8cecc;strokeColor=#b85450;" parent="1" vertex="1">
          <mxGeometry x="240" y="380" width="100" height="30" as="geometry" />
        </mxCell>
        <mxCell id="pTljadonaxYR-jarqHca-6" value="Query 1" style="rounded=1;whiteSpace=wrap;html=1;rotation=0;fillColor=#dae8fc;strokeColor=#6c8ebf;" parent="1" vertex="1">
          <mxGeometry x="110" y="360" width="100" height="30" as="geometry" />
        </mxCell>
        <mxCell id="pTljadonaxYR-jarqHca-7" value="Query 2" style="rounded=1;whiteSpace=wrap;html=1;rotation=0;fillColor=#dae8fc;strokeColor=#6c8ebf;" parent="1" vertex="1">
          <mxGeometry x="110" y="400" width="100" height="30" as="geometry" />
        </mxCell>
        <mxCell id="pTljadonaxYR-jarqHca-19" value="Value 2" style="rounded=1;whiteSpace=wrap;html=1;rotation=0;fillColor=#d5e8d4;strokeColor=#82b366;" parent="1" vertex="1">
          <mxGeometry x="370" y="460" width="100" height="30" as="geometry" />
        </mxCell>
        <mxCell id="pTljadonaxYR-jarqHca-22" value="Key 2" style="rounded=1;whiteSpace=wrap;html=1;rotation=0;fillColor=#f8cecc;strokeColor=#b85450;" parent="1" vertex="1">
          <mxGeometry x="240" y="460" width="100" height="30" as="geometry" />
        </mxCell>
        <mxCell id="pTljadonaxYR-jarqHca-23" value="Query 3" style="rounded=1;whiteSpace=wrap;html=1;rotation=0;fillColor=#dae8fc;strokeColor=#6c8ebf;" parent="1" vertex="1">
          <mxGeometry x="110" y="440" width="100" height="30" as="geometry" />
        </mxCell>
        <mxCell id="pTljadonaxYR-jarqHca-47" style="rounded=0;orthogonalLoop=1;jettySize=auto;html=1;endArrow=none;startFill=0;exitX=1;exitY=0.5;exitDx=0;exitDy=0;entryX=0;entryY=0.5;entryDx=0;entryDy=0;" parent="1" source="pTljadonaxYR-jarqHca-24" target="pTljadonaxYR-jarqHca-22" edge="1">
          <mxGeometry relative="1" as="geometry" />
        </mxCell>
        <mxCell id="pTljadonaxYR-jarqHca-24" value="Query 4" style="rounded=1;whiteSpace=wrap;html=1;rotation=0;fillColor=#dae8fc;strokeColor=#6c8ebf;" parent="1" vertex="1">
          <mxGeometry x="110" y="480" width="100" height="30" as="geometry" />
        </mxCell>
        <mxCell id="pTljadonaxYR-jarqHca-48" style="rounded=0;orthogonalLoop=1;jettySize=auto;html=1;endArrow=none;startFill=0;exitX=1;exitY=0.5;exitDx=0;exitDy=0;entryX=0;entryY=0.5;entryDx=0;entryDy=0;" parent="1" source="pTljadonaxYR-jarqHca-23" target="pTljadonaxYR-jarqHca-22" edge="1">
          <mxGeometry relative="1" as="geometry">
            <mxPoint x="220" y="500" as="sourcePoint" />
            <mxPoint x="250" y="480" as="targetPoint" />
          </mxGeometry>
        </mxCell>
        <mxCell id="pTljadonaxYR-jarqHca-49" style="rounded=0;orthogonalLoop=1;jettySize=auto;html=1;endArrow=none;startFill=0;exitX=1;exitY=0.5;exitDx=0;exitDy=0;entryX=0;entryY=0.5;entryDx=0;entryDy=0;" parent="1" source="pTljadonaxYR-jarqHca-7" target="pTljadonaxYR-jarqHca-5" edge="1">
          <mxGeometry relative="1" as="geometry">
            <mxPoint x="230" y="430" as="sourcePoint" />
            <mxPoint x="260" y="410" as="targetPoint" />
          </mxGeometry>
        </mxCell>
        <mxCell id="pTljadonaxYR-jarqHca-50" style="rounded=0;orthogonalLoop=1;jettySize=auto;html=1;endArrow=none;startFill=0;exitX=1;exitY=0.5;exitDx=0;exitDy=0;entryX=0;entryY=0.5;entryDx=0;entryDy=0;" parent="1" source="pTljadonaxYR-jarqHca-6" target="pTljadonaxYR-jarqHca-5" edge="1">
          <mxGeometry relative="1" as="geometry">
            <mxPoint x="220" y="418" as="sourcePoint" />
            <mxPoint x="248" y="400" as="targetPoint" />
          </mxGeometry>
        </mxCell>
        <mxCell id="pTljadonaxYR-jarqHca-51" style="rounded=0;orthogonalLoop=1;jettySize=auto;html=1;endArrow=none;startFill=0;exitX=1;exitY=0.5;exitDx=0;exitDy=0;entryX=0;entryY=0.5;entryDx=0;entryDy=0;" parent="1" source="pTljadonaxYR-jarqHca-5" target="pTljadonaxYR-jarqHca-1" edge="1">
          <mxGeometry relative="1" as="geometry">
            <mxPoint x="370" y="438" as="sourcePoint" />
            <mxPoint x="398" y="420" as="targetPoint" />
          </mxGeometry>
        </mxCell>
        <mxCell id="pTljadonaxYR-jarqHca-52" style="rounded=0;orthogonalLoop=1;jettySize=auto;html=1;endArrow=none;startFill=0;exitX=1;exitY=0.5;exitDx=0;exitDy=0;entryX=0;entryY=0.5;entryDx=0;entryDy=0;" parent="1" source="pTljadonaxYR-jarqHca-22" target="pTljadonaxYR-jarqHca-19" edge="1">
          <mxGeometry relative="1" as="geometry">
            <mxPoint x="350" y="448" as="sourcePoint" />
            <mxPoint x="378" y="430" as="targetPoint" />
          </mxGeometry>
        </mxCell>
        <mxCell id="pTljadonaxYR-jarqHca-53" value="Value 1" style="rounded=1;whiteSpace=wrap;html=1;rotation=0;fillColor=#d5e8d4;strokeColor=#82b366;" parent="1" vertex="1">
          <mxGeometry x="370" y="585" width="100" height="30" as="geometry" />
        </mxCell>
        <mxCell id="pTljadonaxYR-jarqHca-54" value="Key 1" style="rounded=1;whiteSpace=wrap;html=1;rotation=0;fillColor=#f8cecc;strokeColor=#b85450;" parent="1" vertex="1">
          <mxGeometry x="240" y="585" width="100" height="30" as="geometry" />
        </mxCell>
        <mxCell id="pTljadonaxYR-jarqHca-55" style="rounded=0;orthogonalLoop=1;jettySize=auto;html=1;endArrow=none;startFill=0;exitX=1;exitY=0.5;exitDx=0;exitDy=0;entryX=0;entryY=0.5;entryDx=0;entryDy=0;" parent="1" source="pTljadonaxYR-jarqHca-54" target="pTljadonaxYR-jarqHca-53" edge="1">
          <mxGeometry relative="1" as="geometry">
            <mxPoint x="350" y="573" as="sourcePoint" />
            <mxPoint x="378" y="555" as="targetPoint" />
          </mxGeometry>
        </mxCell>
        <mxCell id="pTljadonaxYR-jarqHca-56" style="rounded=0;orthogonalLoop=1;jettySize=auto;html=1;endArrow=none;startFill=0;exitX=1;exitY=0.5;exitDx=0;exitDy=0;entryX=0;entryY=0.5;entryDx=0;entryDy=0;" parent="1" source="pTljadonaxYR-jarqHca-2" target="pTljadonaxYR-jarqHca-32" edge="1">
          <mxGeometry relative="1" as="geometry">
            <mxPoint x="360" y="515" as="sourcePoint" />
            <mxPoint x="390" y="515" as="targetPoint" />
          </mxGeometry>
        </mxCell>
        <mxCell id="pTljadonaxYR-jarqHca-61" value="Query 1" style="rounded=1;whiteSpace=wrap;html=1;rotation=0;fillColor=#dae8fc;strokeColor=#6c8ebf;" parent="1" vertex="1">
          <mxGeometry x="110" y="585" width="100" height="30" as="geometry" />
        </mxCell>
        <mxCell id="pTljadonaxYR-jarqHca-62" style="rounded=0;orthogonalLoop=1;jettySize=auto;html=1;endArrow=none;startFill=0;exitX=1;exitY=0.5;exitDx=0;exitDy=0;entryX=0;entryY=0.5;entryDx=0;entryDy=0;" parent="1" source="pTljadonaxYR-jarqHca-61" target="pTljadonaxYR-jarqHca-54" edge="1">
          <mxGeometry relative="1" as="geometry">
            <mxPoint x="250" y="565" as="sourcePoint" />
            <mxPoint x="280" y="545" as="targetPoint" />
          </mxGeometry>
        </mxCell>
        <mxCell id="pTljadonaxYR-jarqHca-63" value="Query 2" style="rounded=1;whiteSpace=wrap;html=1;rotation=0;fillColor=#dae8fc;strokeColor=#6c8ebf;" parent="1" vertex="1">
          <mxGeometry x="110" y="625" width="100" height="30" as="geometry" />
        </mxCell>
        <mxCell id="pTljadonaxYR-jarqHca-64" style="rounded=0;orthogonalLoop=1;jettySize=auto;html=1;endArrow=none;startFill=0;exitX=1;exitY=0.5;exitDx=0;exitDy=0;entryX=0;entryY=0.5;entryDx=0;entryDy=0;" parent="1" source="pTljadonaxYR-jarqHca-63" edge="1">
          <mxGeometry relative="1" as="geometry">
            <mxPoint x="250" y="605" as="sourcePoint" />
            <mxPoint x="240" y="640" as="targetPoint" />
          </mxGeometry>
        </mxCell>
        <mxCell id="pTljadonaxYR-jarqHca-65" value="Key 2 (Copy)" style="rounded=1;whiteSpace=wrap;html=1;rotation=0;dashed=1;fillColor=#f8cecc;strokeColor=#b85450;" parent="1" vertex="1">
          <mxGeometry x="240" y="705" width="100" height="30" as="geometry" />
        </mxCell>
        <mxCell id="pTljadonaxYR-jarqHca-66" value="Value 2 (Copy)" style="rounded=1;whiteSpace=wrap;html=1;rotation=0;dashed=1;fillColor=#d5e8d4;strokeColor=#82b366;" parent="1" vertex="1">
          <mxGeometry x="370" y="705" width="100" height="30" as="geometry" />
        </mxCell>
        <mxCell id="pTljadonaxYR-jarqHca-67" value="Value 2" style="rounded=1;whiteSpace=wrap;html=1;rotation=0;fillColor=#d5e8d4;strokeColor=#82b366;" parent="1" vertex="1">
          <mxGeometry x="370" y="665" width="100" height="30" as="geometry" />
        </mxCell>
        <mxCell id="pTljadonaxYR-jarqHca-68" value="Key 2" style="rounded=1;whiteSpace=wrap;html=1;rotation=0;fillColor=#f8cecc;strokeColor=#b85450;" parent="1" vertex="1">
          <mxGeometry x="240" y="665" width="100" height="30" as="geometry" />
        </mxCell>
        <mxCell id="pTljadonaxYR-jarqHca-69" style="rounded=0;orthogonalLoop=1;jettySize=auto;html=1;endArrow=none;startFill=0;exitX=1;exitY=0.5;exitDx=0;exitDy=0;entryX=0;entryY=0.5;entryDx=0;entryDy=0;" parent="1" source="pTljadonaxYR-jarqHca-68" target="pTljadonaxYR-jarqHca-67" edge="1">
          <mxGeometry relative="1" as="geometry">
            <mxPoint x="350" y="653" as="sourcePoint" />
            <mxPoint x="378" y="635" as="targetPoint" />
          </mxGeometry>
        </mxCell>
        <mxCell id="pTljadonaxYR-jarqHca-70" style="rounded=0;orthogonalLoop=1;jettySize=auto;html=1;endArrow=none;startFill=0;exitX=1;exitY=0.5;exitDx=0;exitDy=0;entryX=0;entryY=0.5;entryDx=0;entryDy=0;" parent="1" source="pTljadonaxYR-jarqHca-65" target="pTljadonaxYR-jarqHca-66" edge="1">
          <mxGeometry relative="1" as="geometry">
            <mxPoint x="360" y="595" as="sourcePoint" />
            <mxPoint x="390" y="595" as="targetPoint" />
          </mxGeometry>
        </mxCell>
        <mxCell id="pTljadonaxYR-jarqHca-71" value="Query 3" style="rounded=1;whiteSpace=wrap;html=1;rotation=0;fillColor=#dae8fc;strokeColor=#6c8ebf;" parent="1" vertex="1">
          <mxGeometry x="110" y="665" width="100" height="30" as="geometry" />
        </mxCell>
        <mxCell id="pTljadonaxYR-jarqHca-72" style="rounded=0;orthogonalLoop=1;jettySize=auto;html=1;endArrow=none;startFill=0;exitX=1;exitY=0.5;exitDx=0;exitDy=0;entryX=0;entryY=0.5;entryDx=0;entryDy=0;" parent="1" source="pTljadonaxYR-jarqHca-71" target="pTljadonaxYR-jarqHca-68" edge="1">
          <mxGeometry relative="1" as="geometry">
            <mxPoint x="250" y="645" as="sourcePoint" />
            <mxPoint x="280" y="625" as="targetPoint" />
          </mxGeometry>
        </mxCell>
        <mxCell id="pTljadonaxYR-jarqHca-73" value="Query 4" style="rounded=1;whiteSpace=wrap;html=1;rotation=0;fillColor=#dae8fc;strokeColor=#6c8ebf;" parent="1" vertex="1">
          <mxGeometry x="110" y="705" width="100" height="30" as="geometry" />
        </mxCell>
        <mxCell id="pTljadonaxYR-jarqHca-74" style="rounded=0;orthogonalLoop=1;jettySize=auto;html=1;endArrow=none;startFill=0;exitX=1;exitY=0.5;exitDx=0;exitDy=0;entryX=0;entryY=0.5;entryDx=0;entryDy=0;" parent="1" source="pTljadonaxYR-jarqHca-73" edge="1">
          <mxGeometry relative="1" as="geometry">
            <mxPoint x="250" y="685" as="sourcePoint" />
            <mxPoint x="240" y="720" as="targetPoint" />
          </mxGeometry>
        </mxCell>
        <mxCell id="pTljadonaxYR-jarqHca-75" value="" style="shape=flexArrow;endArrow=classic;html=1;rounded=0;" parent="1" edge="1">
          <mxGeometry width="50" height="50" relative="1" as="geometry">
            <mxPoint x="289.66" y="510" as="sourcePoint" />
            <mxPoint x="289.66" y="570" as="targetPoint" />
          </mxGeometry>
        </mxCell>
        <mxCell id="i_k5Os1gLRo7S7XsmiuL-1" value="Value 1" style="rounded=1;whiteSpace=wrap;html=1;rotation=0;fillColor=#d5e8d4;strokeColor=#82b366;" vertex="1" parent="1">
          <mxGeometry x="1080" y="360" width="100" height="30" as="geometry" />
        </mxCell>
        <mxCell id="i_k5Os1gLRo7S7XsmiuL-2" value="Key 1" style="rounded=1;whiteSpace=wrap;html=1;rotation=0;fillColor=#f8cecc;strokeColor=#b85450;" vertex="1" parent="1">
          <mxGeometry x="950" y="360" width="100" height="30" as="geometry" />
        </mxCell>
        <mxCell id="i_k5Os1gLRo7S7XsmiuL-3" value="Query 1" style="rounded=1;whiteSpace=wrap;html=1;rotation=0;fillColor=#dae8fc;strokeColor=#6c8ebf;" vertex="1" parent="1">
          <mxGeometry x="820" y="340" width="100" height="30" as="geometry" />
        </mxCell>
        <mxCell id="i_k5Os1gLRo7S7XsmiuL-4" value="Query 2" style="rounded=1;whiteSpace=wrap;html=1;rotation=0;fillColor=#dae8fc;strokeColor=#6c8ebf;" vertex="1" parent="1">
          <mxGeometry x="820" y="380" width="100" height="30" as="geometry" />
        </mxCell>
        <mxCell id="i_k5Os1gLRo7S7XsmiuL-5" value="Value 2" style="rounded=1;whiteSpace=wrap;html=1;rotation=0;fillColor=#d5e8d4;strokeColor=#82b366;" vertex="1" parent="1">
          <mxGeometry x="1080" y="440" width="100" height="30" as="geometry" />
        </mxCell>
        <mxCell id="i_k5Os1gLRo7S7XsmiuL-6" value="Key 2" style="rounded=1;whiteSpace=wrap;html=1;rotation=0;fillColor=#f8cecc;strokeColor=#b85450;" vertex="1" parent="1">
          <mxGeometry x="950" y="440" width="100" height="30" as="geometry" />
        </mxCell>
        <mxCell id="i_k5Os1gLRo7S7XsmiuL-7" value="Query 3" style="rounded=1;whiteSpace=wrap;html=1;rotation=0;fillColor=#dae8fc;strokeColor=#6c8ebf;" vertex="1" parent="1">
          <mxGeometry x="820" y="420" width="100" height="30" as="geometry" />
        </mxCell>
        <mxCell id="i_k5Os1gLRo7S7XsmiuL-8" style="rounded=0;orthogonalLoop=1;jettySize=auto;html=1;endArrow=none;startFill=0;exitX=1;exitY=0.5;exitDx=0;exitDy=0;entryX=0;entryY=0.5;entryDx=0;entryDy=0;" edge="1" parent="1" source="i_k5Os1gLRo7S7XsmiuL-9" target="i_k5Os1gLRo7S7XsmiuL-6">
          <mxGeometry relative="1" as="geometry" />
        </mxCell>
        <mxCell id="i_k5Os1gLRo7S7XsmiuL-9" value="Query 4" style="rounded=1;whiteSpace=wrap;html=1;rotation=0;fillColor=#dae8fc;strokeColor=#6c8ebf;" vertex="1" parent="1">
          <mxGeometry x="820" y="460" width="100" height="30" as="geometry" />
        </mxCell>
        <mxCell id="i_k5Os1gLRo7S7XsmiuL-10" style="rounded=0;orthogonalLoop=1;jettySize=auto;html=1;endArrow=none;startFill=0;exitX=1;exitY=0.5;exitDx=0;exitDy=0;entryX=0;entryY=0.5;entryDx=0;entryDy=0;" edge="1" parent="1" source="i_k5Os1gLRo7S7XsmiuL-7" target="i_k5Os1gLRo7S7XsmiuL-6">
          <mxGeometry relative="1" as="geometry">
            <mxPoint x="930" y="480" as="sourcePoint" />
            <mxPoint x="960" y="460" as="targetPoint" />
          </mxGeometry>
        </mxCell>
        <mxCell id="i_k5Os1gLRo7S7XsmiuL-11" style="rounded=0;orthogonalLoop=1;jettySize=auto;html=1;endArrow=none;startFill=0;exitX=1;exitY=0.5;exitDx=0;exitDy=0;entryX=0;entryY=0.5;entryDx=0;entryDy=0;" edge="1" parent="1" source="i_k5Os1gLRo7S7XsmiuL-4" target="i_k5Os1gLRo7S7XsmiuL-2">
          <mxGeometry relative="1" as="geometry">
            <mxPoint x="940" y="410" as="sourcePoint" />
            <mxPoint x="970" y="390" as="targetPoint" />
          </mxGeometry>
        </mxCell>
        <mxCell id="i_k5Os1gLRo7S7XsmiuL-12" style="rounded=0;orthogonalLoop=1;jettySize=auto;html=1;endArrow=none;startFill=0;exitX=1;exitY=0.5;exitDx=0;exitDy=0;entryX=0;entryY=0.5;entryDx=0;entryDy=0;" edge="1" parent="1" source="i_k5Os1gLRo7S7XsmiuL-3" target="i_k5Os1gLRo7S7XsmiuL-2">
          <mxGeometry relative="1" as="geometry">
            <mxPoint x="930" y="398" as="sourcePoint" />
            <mxPoint x="958" y="380" as="targetPoint" />
          </mxGeometry>
        </mxCell>
        <mxCell id="i_k5Os1gLRo7S7XsmiuL-13" style="rounded=0;orthogonalLoop=1;jettySize=auto;html=1;endArrow=none;startFill=0;exitX=1;exitY=0.5;exitDx=0;exitDy=0;entryX=0;entryY=0.5;entryDx=0;entryDy=0;" edge="1" parent="1" source="i_k5Os1gLRo7S7XsmiuL-2" target="i_k5Os1gLRo7S7XsmiuL-1">
          <mxGeometry relative="1" as="geometry">
            <mxPoint x="1080" y="418" as="sourcePoint" />
            <mxPoint x="1108" y="400" as="targetPoint" />
          </mxGeometry>
        </mxCell>
        <mxCell id="i_k5Os1gLRo7S7XsmiuL-14" style="rounded=0;orthogonalLoop=1;jettySize=auto;html=1;endArrow=none;startFill=0;exitX=1;exitY=0.5;exitDx=0;exitDy=0;entryX=0;entryY=0.5;entryDx=0;entryDy=0;" edge="1" parent="1" source="i_k5Os1gLRo7S7XsmiuL-6" target="i_k5Os1gLRo7S7XsmiuL-5">
          <mxGeometry relative="1" as="geometry">
            <mxPoint x="1060" y="428" as="sourcePoint" />
            <mxPoint x="1088" y="410" as="targetPoint" />
          </mxGeometry>
        </mxCell>
        <mxCell id="i_k5Os1gLRo7S7XsmiuL-15" value="Value 2" style="rounded=1;whiteSpace=wrap;html=1;rotation=0;fillColor=#d5e8d4;strokeColor=#82b366;" vertex="1" parent="1">
          <mxGeometry x="1080" y="210" width="100" height="30" as="geometry" />
        </mxCell>
        <mxCell id="i_k5Os1gLRo7S7XsmiuL-16" value="Key 2" style="rounded=1;whiteSpace=wrap;html=1;rotation=0;fillColor=#f8cecc;strokeColor=#b85450;" vertex="1" parent="1">
          <mxGeometry x="950" y="210" width="100" height="30" as="geometry" />
        </mxCell>
        <mxCell id="i_k5Os1gLRo7S7XsmiuL-17" value="Query 1" style="rounded=1;whiteSpace=wrap;html=1;rotation=0;fillColor=#dae8fc;strokeColor=#6c8ebf;" vertex="1" parent="1">
          <mxGeometry x="820" y="170" width="100" height="30" as="geometry" />
        </mxCell>
        <mxCell id="i_k5Os1gLRo7S7XsmiuL-18" value="Query 2" style="rounded=1;whiteSpace=wrap;html=1;rotation=0;fillColor=#dae8fc;strokeColor=#6c8ebf;" vertex="1" parent="1">
          <mxGeometry x="820" y="210" width="100" height="30" as="geometry" />
        </mxCell>
        <mxCell id="i_k5Os1gLRo7S7XsmiuL-21" value="Query 3" style="rounded=1;whiteSpace=wrap;html=1;rotation=0;fillColor=#dae8fc;strokeColor=#6c8ebf;" vertex="1" parent="1">
          <mxGeometry x="820" y="250" width="100" height="30" as="geometry" />
        </mxCell>
        <mxCell id="i_k5Os1gLRo7S7XsmiuL-22" style="rounded=0;orthogonalLoop=1;jettySize=auto;html=1;endArrow=none;startFill=0;exitX=1;exitY=0.5;exitDx=0;exitDy=0;entryX=0;entryY=0.5;entryDx=0;entryDy=0;" edge="1" parent="1" source="i_k5Os1gLRo7S7XsmiuL-23" target="i_k5Os1gLRo7S7XsmiuL-36">
          <mxGeometry relative="1" as="geometry">
            <mxPoint x="950" y="285" as="targetPoint" />
          </mxGeometry>
        </mxCell>
        <mxCell id="i_k5Os1gLRo7S7XsmiuL-23" value="Query 4" style="rounded=1;whiteSpace=wrap;html=1;rotation=0;fillColor=#dae8fc;strokeColor=#6c8ebf;" vertex="1" parent="1">
          <mxGeometry x="820" y="290" width="100" height="30" as="geometry" />
        </mxCell>
        <mxCell id="i_k5Os1gLRo7S7XsmiuL-24" style="rounded=0;orthogonalLoop=1;jettySize=auto;html=1;endArrow=none;startFill=0;exitX=1;exitY=0.5;exitDx=0;exitDy=0;entryX=0;entryY=0.5;entryDx=0;entryDy=0;" edge="1" parent="1" source="i_k5Os1gLRo7S7XsmiuL-21" target="i_k5Os1gLRo7S7XsmiuL-33">
          <mxGeometry relative="1" as="geometry">
            <mxPoint x="930" y="310" as="sourcePoint" />
            <mxPoint x="950" y="285" as="targetPoint" />
          </mxGeometry>
        </mxCell>
        <mxCell id="i_k5Os1gLRo7S7XsmiuL-25" style="rounded=0;orthogonalLoop=1;jettySize=auto;html=1;endArrow=none;startFill=0;exitX=1;exitY=0.5;exitDx=0;exitDy=0;entryX=0;entryY=0.5;entryDx=0;entryDy=0;" edge="1" parent="1" source="i_k5Os1gLRo7S7XsmiuL-18" target="i_k5Os1gLRo7S7XsmiuL-16">
          <mxGeometry relative="1" as="geometry">
            <mxPoint x="940" y="240" as="sourcePoint" />
            <mxPoint x="970" y="220" as="targetPoint" />
          </mxGeometry>
        </mxCell>
        <mxCell id="i_k5Os1gLRo7S7XsmiuL-26" style="rounded=0;orthogonalLoop=1;jettySize=auto;html=1;endArrow=none;startFill=0;exitX=1;exitY=0.5;exitDx=0;exitDy=0;entryX=0;entryY=0.5;entryDx=0;entryDy=0;" edge="1" parent="1" source="i_k5Os1gLRo7S7XsmiuL-17" target="i_k5Os1gLRo7S7XsmiuL-39">
          <mxGeometry relative="1" as="geometry">
            <mxPoint x="930" y="228" as="sourcePoint" />
            <mxPoint x="958" y="210" as="targetPoint" />
          </mxGeometry>
        </mxCell>
        <mxCell id="i_k5Os1gLRo7S7XsmiuL-27" style="rounded=0;orthogonalLoop=1;jettySize=auto;html=1;endArrow=none;startFill=0;exitX=1;exitY=0.5;exitDx=0;exitDy=0;entryX=0;entryY=0.5;entryDx=0;entryDy=0;" edge="1" parent="1" source="i_k5Os1gLRo7S7XsmiuL-16" target="i_k5Os1gLRo7S7XsmiuL-15">
          <mxGeometry relative="1" as="geometry">
            <mxPoint x="1080" y="268" as="sourcePoint" />
            <mxPoint x="1108" y="250" as="targetPoint" />
          </mxGeometry>
        </mxCell>
        <mxCell id="i_k5Os1gLRo7S7XsmiuL-32" value="Value 3" style="rounded=1;whiteSpace=wrap;html=1;rotation=0;fillColor=#d5e8d4;strokeColor=#82b366;" vertex="1" parent="1">
          <mxGeometry x="1080" y="250" width="100" height="30" as="geometry" />
        </mxCell>
        <mxCell id="i_k5Os1gLRo7S7XsmiuL-33" value="Key 3" style="rounded=1;whiteSpace=wrap;html=1;rotation=0;fillColor=#f8cecc;strokeColor=#b85450;" vertex="1" parent="1">
          <mxGeometry x="950" y="250" width="100" height="30" as="geometry" />
        </mxCell>
        <mxCell id="i_k5Os1gLRo7S7XsmiuL-34" style="rounded=0;orthogonalLoop=1;jettySize=auto;html=1;endArrow=none;startFill=0;exitX=1;exitY=0.5;exitDx=0;exitDy=0;entryX=0;entryY=0.5;entryDx=0;entryDy=0;" edge="1" parent="1" source="i_k5Os1gLRo7S7XsmiuL-33" target="i_k5Os1gLRo7S7XsmiuL-32">
          <mxGeometry relative="1" as="geometry">
            <mxPoint x="1060" y="238" as="sourcePoint" />
            <mxPoint x="1088" y="220" as="targetPoint" />
          </mxGeometry>
        </mxCell>
        <mxCell id="i_k5Os1gLRo7S7XsmiuL-35" value="Value 4" style="rounded=1;whiteSpace=wrap;html=1;rotation=0;fillColor=#d5e8d4;strokeColor=#82b366;" vertex="1" parent="1">
          <mxGeometry x="1080" y="290" width="100" height="30" as="geometry" />
        </mxCell>
        <mxCell id="i_k5Os1gLRo7S7XsmiuL-36" value="Key 4" style="rounded=1;whiteSpace=wrap;html=1;rotation=0;fillColor=#f8cecc;strokeColor=#b85450;" vertex="1" parent="1">
          <mxGeometry x="950" y="290" width="100" height="30" as="geometry" />
        </mxCell>
        <mxCell id="i_k5Os1gLRo7S7XsmiuL-37" style="rounded=0;orthogonalLoop=1;jettySize=auto;html=1;endArrow=none;startFill=0;exitX=1;exitY=0.5;exitDx=0;exitDy=0;entryX=0;entryY=0.5;entryDx=0;entryDy=0;" edge="1" parent="1" source="i_k5Os1gLRo7S7XsmiuL-36" target="i_k5Os1gLRo7S7XsmiuL-35">
          <mxGeometry relative="1" as="geometry">
            <mxPoint x="1060" y="278" as="sourcePoint" />
            <mxPoint x="1088" y="260" as="targetPoint" />
          </mxGeometry>
        </mxCell>
        <mxCell id="i_k5Os1gLRo7S7XsmiuL-38" value="Value 1" style="rounded=1;whiteSpace=wrap;html=1;rotation=0;fillColor=#d5e8d4;strokeColor=#82b366;" vertex="1" parent="1">
          <mxGeometry x="1080" y="170" width="100" height="30" as="geometry" />
        </mxCell>
        <mxCell id="i_k5Os1gLRo7S7XsmiuL-39" value="Key 1" style="rounded=1;whiteSpace=wrap;html=1;rotation=0;fillColor=#f8cecc;strokeColor=#b85450;" vertex="1" parent="1">
          <mxGeometry x="950" y="170" width="100" height="30" as="geometry" />
        </mxCell>
        <mxCell id="i_k5Os1gLRo7S7XsmiuL-40" style="rounded=0;orthogonalLoop=1;jettySize=auto;html=1;endArrow=none;startFill=0;exitX=1;exitY=0.5;exitDx=0;exitDy=0;entryX=0;entryY=0.5;entryDx=0;entryDy=0;" edge="1" parent="1" source="i_k5Os1gLRo7S7XsmiuL-39" target="i_k5Os1gLRo7S7XsmiuL-38">
          <mxGeometry relative="1" as="geometry">
            <mxPoint x="1060" y="158" as="sourcePoint" />
            <mxPoint x="1088" y="140" as="targetPoint" />
          </mxGeometry>
        </mxCell>
        <mxCell id="i_k5Os1gLRo7S7XsmiuL-41" value="Value 1" style="rounded=1;whiteSpace=wrap;html=1;rotation=0;fillColor=#d5e8d4;strokeColor=#82b366;" vertex="1" parent="1">
          <mxGeometry x="1080" y="570" width="100" height="30" as="geometry" />
        </mxCell>
        <mxCell id="i_k5Os1gLRo7S7XsmiuL-42" value="Key 1" style="rounded=1;whiteSpace=wrap;html=1;rotation=0;fillColor=#f8cecc;strokeColor=#b85450;" vertex="1" parent="1">
          <mxGeometry x="950" y="570" width="100" height="30" as="geometry" />
        </mxCell>
        <mxCell id="i_k5Os1gLRo7S7XsmiuL-43" value="Query 1" style="rounded=1;whiteSpace=wrap;html=1;rotation=0;fillColor=#dae8fc;strokeColor=#6c8ebf;" vertex="1" parent="1">
          <mxGeometry x="820" y="510" width="100" height="30" as="geometry" />
        </mxCell>
        <mxCell id="i_k5Os1gLRo7S7XsmiuL-44" value="Query 2" style="rounded=1;whiteSpace=wrap;html=1;rotation=0;fillColor=#dae8fc;strokeColor=#6c8ebf;" vertex="1" parent="1">
          <mxGeometry x="820" y="550" width="100" height="30" as="geometry" />
        </mxCell>
        <mxCell id="i_k5Os1gLRo7S7XsmiuL-47" value="Query 3" style="rounded=1;whiteSpace=wrap;html=1;rotation=0;fillColor=#dae8fc;strokeColor=#6c8ebf;" vertex="1" parent="1">
          <mxGeometry x="820" y="590" width="100" height="30" as="geometry" />
        </mxCell>
        <mxCell id="i_k5Os1gLRo7S7XsmiuL-49" value="Query 4" style="rounded=1;whiteSpace=wrap;html=1;rotation=0;fillColor=#dae8fc;strokeColor=#6c8ebf;" vertex="1" parent="1">
          <mxGeometry x="820" y="630" width="100" height="30" as="geometry" />
        </mxCell>
        <mxCell id="i_k5Os1gLRo7S7XsmiuL-51" style="rounded=0;orthogonalLoop=1;jettySize=auto;html=1;endArrow=none;startFill=0;exitX=1;exitY=0.5;exitDx=0;exitDy=0;entryX=0;entryY=0.5;entryDx=0;entryDy=0;" edge="1" parent="1" source="i_k5Os1gLRo7S7XsmiuL-44" target="i_k5Os1gLRo7S7XsmiuL-42">
          <mxGeometry relative="1" as="geometry">
            <mxPoint x="940" y="580" as="sourcePoint" />
            <mxPoint x="970" y="560" as="targetPoint" />
          </mxGeometry>
        </mxCell>
        <mxCell id="i_k5Os1gLRo7S7XsmiuL-52" style="rounded=0;orthogonalLoop=1;jettySize=auto;html=1;endArrow=none;startFill=0;exitX=1;exitY=0.5;exitDx=0;exitDy=0;entryX=0;entryY=0.5;entryDx=0;entryDy=0;" edge="1" parent="1" source="i_k5Os1gLRo7S7XsmiuL-43" target="i_k5Os1gLRo7S7XsmiuL-42">
          <mxGeometry relative="1" as="geometry">
            <mxPoint x="930" y="568" as="sourcePoint" />
            <mxPoint x="958" y="550" as="targetPoint" />
          </mxGeometry>
        </mxCell>
        <mxCell id="i_k5Os1gLRo7S7XsmiuL-53" style="rounded=0;orthogonalLoop=1;jettySize=auto;html=1;endArrow=none;startFill=0;exitX=1;exitY=0.5;exitDx=0;exitDy=0;entryX=0;entryY=0.5;entryDx=0;entryDy=0;" edge="1" parent="1" source="i_k5Os1gLRo7S7XsmiuL-42" target="i_k5Os1gLRo7S7XsmiuL-41">
          <mxGeometry relative="1" as="geometry">
            <mxPoint x="1080" y="628" as="sourcePoint" />
            <mxPoint x="1108" y="610" as="targetPoint" />
          </mxGeometry>
        </mxCell>
        <mxCell id="i_k5Os1gLRo7S7XsmiuL-55" style="rounded=0;orthogonalLoop=1;jettySize=auto;html=1;endArrow=none;startFill=0;entryX=1;entryY=0.5;entryDx=0;entryDy=0;exitX=0;exitY=0.5;exitDx=0;exitDy=0;" edge="1" parent="1" source="i_k5Os1gLRo7S7XsmiuL-42" target="i_k5Os1gLRo7S7XsmiuL-47">
          <mxGeometry relative="1" as="geometry">
            <mxPoint x="940" y="610" as="sourcePoint" />
            <mxPoint x="970" y="600" as="targetPoint" />
          </mxGeometry>
        </mxCell>
        <mxCell id="i_k5Os1gLRo7S7XsmiuL-56" style="rounded=0;orthogonalLoop=1;jettySize=auto;html=1;endArrow=none;startFill=0;entryX=1;entryY=0.5;entryDx=0;entryDy=0;exitX=0;exitY=0.5;exitDx=0;exitDy=0;" edge="1" parent="1" source="i_k5Os1gLRo7S7XsmiuL-42" target="i_k5Os1gLRo7S7XsmiuL-49">
          <mxGeometry relative="1" as="geometry">
            <mxPoint x="960" y="610" as="sourcePoint" />
            <mxPoint x="930" y="630" as="targetPoint" />
          </mxGeometry>
        </mxCell>
        <mxCell id="i_k5Os1gLRo7S7XsmiuL-57" value="" style="endArrow=none;dashed=1;html=1;rounded=0;fontSize=12;startSize=8;endSize=8;curved=1;" edge="1" parent="1">
          <mxGeometry width="50" height="50" relative="1" as="geometry">
            <mxPoint x="1180" y="330" as="sourcePoint" />
            <mxPoint x="820" y="330" as="targetPoint" />
          </mxGeometry>
        </mxCell>
        <mxCell id="i_k5Os1gLRo7S7XsmiuL-58" value="" style="endArrow=none;dashed=1;html=1;rounded=0;fontSize=12;startSize=8;endSize=8;curved=1;" edge="1" parent="1">
          <mxGeometry width="50" height="50" relative="1" as="geometry">
            <mxPoint x="1180" y="500" as="sourcePoint" />
            <mxPoint x="820" y="500" as="targetPoint" />
          </mxGeometry>
        </mxCell>
        <mxCell id="i_k5Os1gLRo7S7XsmiuL-59" value="Multi Head" style="text;html=1;align=left;verticalAlign=middle;whiteSpace=wrap;rounded=0;fontSize=24;fontFamily=Georgia;" vertex="1" parent="1">
          <mxGeometry x="1210" y="230" width="140" height="30" as="geometry" />
        </mxCell>
        <mxCell id="i_k5Os1gLRo7S7XsmiuL-61" value="Group Query" style="text;html=1;align=left;verticalAlign=middle;whiteSpace=wrap;rounded=0;fontSize=24;fontFamily=Georgia;" vertex="1" parent="1">
          <mxGeometry x="1210" y="400" width="160" height="30" as="geometry" />
        </mxCell>
        <mxCell id="i_k5Os1gLRo7S7XsmiuL-62" value="Multi Query" style="text;html=1;align=left;verticalAlign=middle;whiteSpace=wrap;rounded=0;fontSize=24;fontFamily=Georgia;" vertex="1" parent="1">
          <mxGeometry x="1210" y="570" width="160" height="30" as="geometry" />
        </mxCell>
      </root>
    </mxGraphModel>
  </diagram>
</mxfile>
